<svg data-v-423bf9ae="" xmlns="http://www.w3.org/2000/svg" viewBox="0 0 349 90" class="iconLeftSlogan"><!----><!----><!----><g data-v-423bf9ae="" id="28c05e6a-b7a3-46fb-87c0-9e9a95b4c8ce" fill="white" transform="matrix(4.724409874540003,0,0,4.724409874540003,108.2047312579198,-16.58267789932419)"><path d="M1.65 12.80C1.43 12.80 1.23 12.77 1.09 12.73C0.95 12.68 0.84 12.67 0.76 12.67C0.67 12.67 0.59 12.70 0.53 12.75C0.48 12.81 0.42 13.15 0.38 13.73C0.87 13.87 1.36 13.93 1.83 13.93C2.31 13.93 2.74 13.85 3.14 13.68C4.34 13.17 4.96 12.07 4.96 10.35L4.96 4.80L5.74 4.65C5.88 4.62 5.96 4.52 5.96 4.38L5.96 3.79L2.46 3.79L2.46 4.38C2.46 4.52 2.52 4.62 2.66 4.65C2.74 4.68 3.07 4.73 3.60 4.82L3.60 10.39C3.60 12.00 2.94 12.81 1.65 12.81ZM12.80 12.95C12.71 12.92 12.29 12.84 12.10 12.80L12.10 9.25C12.10 8.86 12.05 8.50 11.94 8.16C11.83 7.83 11.68 7.55 11.47 7.32C11.26 7.10 11.00 6.93 10.70 6.79C10.39 6.65 10.02 6.59 9.63 6.59C9.07 6.59 8.57 6.68 8.12 6.87C7.67 7.07 7.25 7.34 6.86 7.71L7.08 8.11C7.11 8.16 7.17 8.23 7.22 8.27C7.28 8.32 7.36 8.33 7.45 8.33C7.56 8.33 7.66 8.30 7.77 8.22C7.88 8.13 8.02 8.06 8.18 7.97C8.33 7.87 8.50 7.80 8.71 7.71C8.92 7.63 9.17 7.59 9.48 7.59C9.94 7.59 10.29 7.74 10.53 8.02C10.77 8.30 10.89 8.72 10.89 9.28L10.89 9.83C10.08 9.83 9.41 9.88 8.85 10.01C8.29 10.14 7.84 10.32 7.50 10.51C7.17 10.71 6.90 10.96 6.75 11.21C6.59 11.47 6.52 11.75 6.52 12.03C6.52 12.35 6.57 12.63 6.68 12.87C6.79 13.10 6.93 13.30 7.10 13.45C7.27 13.61 7.49 13.71 7.73 13.79C7.97 13.87 8.20 13.92 8.48 13.92C8.76 13.92 9.02 13.90 9.24 13.85C9.46 13.79 9.66 13.72 9.86 13.64C10.05 13.55 10.25 13.44 10.42 13.30C10.58 13.16 10.78 13.01 10.98 12.84L11.12 13.51C11.14 13.62 11.17 13.71 11.26 13.73C11.34 13.76 11.44 13.79 11.55 13.79L12.00 13.79L12.10 13.79L13.01 13.79L13.01 13.19C13.01 13.06 12.92 12.95 12.80 12.92ZM10.86 12.08C10.72 12.22 10.58 12.36 10.44 12.47C10.30 12.59 10.15 12.70 9.98 12.78C9.81 12.87 9.65 12.92 9.46 12.96C9.28 13.01 9.10 13.03 8.88 13.03C8.71 13.03 8.55 13.01 8.41 12.96C8.27 12.92 8.16 12.87 8.05 12.78C7.94 12.70 7.85 12.59 7.80 12.45C7.74 12.31 7.70 12.17 7.70 11.97C7.70 11.77 7.76 11.61 7.87 11.44C7.98 11.27 8.18 11.13 8.43 11.02C8.68 10.91 9.02 10.79 9.41 10.72C9.80 10.65 10.29 10.63 10.86 10.63ZM20.71 6.73L18.07 6.73L18.07 7.32C18.07 7.46 18.13 7.56 18.27 7.59C18.41 7.62 18.66 7.66 19.04 7.74L17.51 11.44C17.46 11.58 17.37 11.80 17.29 12.08C17.23 11.86 17.19 11.63 17.11 11.44L15.53 7.74C15.97 7.66 16.23 7.60 16.31 7.57C16.45 7.55 16.52 7.46 16.52 7.32L16.52 6.72L13.34 6.72L13.34 7.32C13.34 7.46 13.41 7.55 13.55 7.57C13.64 7.60 13.85 7.66 14.18 7.71L16.67 13.40L15.39 16.21L16.31 16.21C16.51 16.21 16.67 16.10 16.76 15.90L20.27 7.73C20.30 7.73 20.43 7.70 20.62 7.66C20.82 7.62 20.96 7.57 21 7.57C21.14 7.55 21.21 7.46 21.21 7.32L21.21 6.72ZM29.83 3.79L29.36 3.79L21.80 3.79L21.80 6.01L22.47 6.01C22.64 6.01 22.72 5.96 22.75 5.87C22.78 5.77 22.82 5.46 22.88 4.93L25.24 4.93L25.24 12.80C24.88 12.87 24.63 12.92 24.47 12.95C24.32 12.98 24.23 13.09 24.23 13.23L24.23 13.82L27.62 13.82L27.62 13.23C27.62 13.09 27.58 13.01 27.48 12.98C27.38 12.95 27.15 12.91 26.78 12.84C26.67 12.81 26.61 12.81 26.61 12.81L26.61 4.94L28.97 4.94C29.02 5.47 29.08 5.77 29.11 5.87C29.13 5.96 29.20 6.01 29.37 6.01L30.06 6.01L30.06 3.79ZM32.44 6.62C31.93 6.62 31.47 6.71 31.05 6.89C30.63 7.07 30.28 7.32 30.00 7.63C29.72 7.94 29.50 8.33 29.34 8.75C29.19 9.17 29.11 9.62 29.11 10.12C29.11 10.74 29.19 11.27 29.36 11.75C29.53 12.22 29.75 12.61 30.06 12.94C30.37 13.26 30.72 13.51 31.14 13.68C31.56 13.85 32.00 13.93 32.49 13.93C32.75 13.93 33.01 13.90 33.26 13.86C33.52 13.82 33.77 13.75 34.02 13.66C34.27 13.58 34.48 13.45 34.71 13.31C34.93 13.17 35.11 13.03 35.27 12.84L34.92 12.38C34.86 12.29 34.79 12.25 34.68 12.25C34.59 12.25 34.51 12.29 34.40 12.36C34.29 12.43 34.15 12.50 33.98 12.59C33.81 12.67 33.61 12.75 33.39 12.82C33.17 12.89 32.89 12.92 32.58 12.92C32.24 12.92 31.96 12.87 31.68 12.75C31.40 12.64 31.18 12.47 30.98 12.25C30.79 12.03 30.62 11.77 30.51 11.44C30.39 11.10 30.34 10.71 30.34 10.26L35.04 10.26C35.15 10.26 35.25 10.22 35.29 10.16C35.34 10.11 35.35 9.97 35.35 9.77C35.35 9.27 35.27 8.82 35.13 8.43C34.99 8.04 34.76 7.70 34.51 7.43C34.26 7.17 33.95 6.97 33.59 6.83C33.22 6.69 32.83 6.62 32.41 6.62ZM32.44 7.55C32.72 7.55 32.98 7.59 33.21 7.69C33.43 7.78 33.63 7.92 33.78 8.09C33.94 8.26 34.03 8.48 34.12 8.72C34.20 8.96 34.24 9.23 34.24 9.51L30.39 9.51C30.48 8.89 30.70 8.40 31.04 8.05C31.37 7.70 31.85 7.53 32.45 7.53ZM42.13 12.82L41.79 12.36C41.73 12.28 41.66 12.25 41.57 12.25C41.47 12.25 41.37 12.28 41.29 12.36C40.84 12.75 40.32 12.95 39.73 12.95C39.09 12.95 38.60 12.71 38.23 12.25C37.87 11.77 37.67 11.10 37.67 10.26C37.67 9.42 37.84 8.78 38.21 8.30C38.39 8.08 38.61 7.90 38.86 7.78C39.12 7.67 39.38 7.60 39.63 7.60C39.89 7.60 40.14 7.62 40.42 7.66C40.53 7.69 40.70 7.71 40.92 7.78C40.92 7.80 40.94 7.94 40.96 8.25C40.99 8.55 41.01 8.72 41.02 8.78C41.05 8.92 41.12 8.97 41.26 8.97L41.82 8.97L41.82 7.13C40.95 6.79 40.25 6.62 39.72 6.62C38.67 6.62 37.83 6.96 37.23 7.64C36.65 8.32 36.37 9.17 36.37 10.26C36.37 11.38 36.68 12.28 37.28 12.95C37.86 13.59 38.58 13.92 39.49 13.92C40.64 13.92 41.54 13.55 42.13 12.82ZM45.16 7.69L45.16 3.51L42.76 3.51L42.76 4.10C42.76 4.24 42.84 4.34 42.98 4.37C43.06 4.40 43.37 4.45 43.90 4.54L43.90 12.81L43.12 12.96C42.98 12.99 42.90 13.09 42.90 13.23L42.90 13.82L46.17 13.82L46.17 13.23C46.17 13.09 46.09 12.99 45.95 12.96C45.89 12.95 45.70 12.91 45.33 12.84L45.16 12.81L45.16 8.61C45.75 7.95 46.37 7.62 47.07 7.62C48.06 7.62 48.57 8.19 48.57 9.31L48.57 13.82L50.82 13.82L50.82 13.23C50.82 13.09 50.75 12.99 50.61 12.96C50.53 12.94 50.26 12.88 49.81 12.80L49.81 9.31C49.81 8.50 49.60 7.83 49.20 7.35C48.78 6.86 48.19 6.62 47.43 6.62C46.58 6.62 45.84 6.99 45.16 7.69Z"></path></g><!----><g data-v-423bf9ae="" id="0f5d15e3-4f97-4654-be88-933ce368c78f" transform="matrix(2.8125,0,0,2.8125,0,0)" stroke="none" fill="white"><path d="M16 32c8.837 0 16-7.163 16-16S24.837 0 16 0 0 7.163 0 16s7.163 16 16 16zM14.817 6.421h2v8.886h8.887v2H14.817V6.421zm-5.959.437h2v14.283h14.283v2H8.858V6.858z"></path></g><!----><g data-v-423bf9ae="" id="30235398-2881-4594-9667-da9831e7ea54" fill="white" transform="matrix(0.6866917529856075,0,0,0.6866917529856075,109.64291949553039,58.00859287783848)"><path d="M0.52 12.39C0.52 12.63 0.55 12.68 0.74 12.68C1.06 12.68 2.03 12.64 2.45 12.64C2.87 12.64 7.22 12.68 7.55 12.68C7.81 12.68 7.88 12.66 7.90 12.49C7.95 12.08 8.19 10.72 8.19 10.60C8.19 10.47 8.04 10.44 7.87 10.43C7.77 10.42 7.69 10.46 7.67 10.56L7.50 11.76C7.46 12.05 7.45 12.03 7.22 12.04C7.07 12.05 4.56 12.12 3.14 12.12C3.09 12.12 3.05 11.38 3.05 10.54L3.05 6.66C3.05 5.40 3.07 3.70 3.16 3.70L4.14 3.70C4.38 3.70 4.41 3.63 4.41 3.44C4.41 3.23 4.40 3.19 4.16 3.19C3.84 3.19 2.90 3.23 2.48 3.23C2.06 3.23 1.12 3.19 0.90 3.19C0.67 3.19 0.62 3.22 0.62 3.44C0.62 3.65 0.66 3.70 0.85 3.70L1.68 3.70C1.72 3.70 1.75 4.23 1.75 4.90L1.75 8.13C1.75 10.07 1.72 12.18 1.64 12.18L0.80 12.18C0.57 12.18 0.52 12.21 0.52 12.39ZM15.81 12.39C15.81 12.63 15.83 12.68 16.03 12.68C16.35 12.68 17.32 12.64 17.74 12.64C18.16 12.64 22.67 12.68 22.99 12.68C23.11 12.68 23.27 12.66 23.27 12.49C23.27 12.07 23.31 11.23 23.31 10.53C23.31 10.39 23.16 10.39 23.03 10.39C22.92 10.39 22.79 10.39 22.79 10.51C22.78 11.06 22.78 11.41 22.75 11.76C22.72 12.01 22.72 12.04 22.62 12.04C22.47 12.04 19.84 12.08 18.34 12.08C18.27 12.08 18.23 10.11 18.19 8.26C18.19 8.06 18.23 8.09 18.37 8.09L20.65 8.09C21.35 8.09 21.38 8.20 21.38 8.30L21.38 9.00C21.38 9.14 21.56 9.14 21.67 9.14C21.77 9.14 21.90 9.13 21.90 9.02C21.90 8.83 21.87 8.33 21.87 7.83C21.87 7.32 21.90 6.83 21.90 6.71C21.90 6.59 21.76 6.58 21.66 6.58C21.55 6.58 21.38 6.59 21.38 6.72L21.38 7.45C21.38 7.62 20.93 7.63 20.65 7.63L18.31 7.63C18.20 7.63 18.19 7.63 18.19 7.45C18.17 6.75 18.16 6.06 18.16 5.46C18.16 5.12 18.16 3.71 18.24 3.71C19.47 3.71 21.98 3.75 21.98 3.81C21.98 3.99 21.94 4.83 21.94 4.89C21.94 5.04 22.01 5.10 22.19 5.10C22.39 5.10 22.46 5.08 22.46 4.94C22.46 3.85 22.51 3.36 22.51 3.09C22.51 2.91 22.43 2.90 22.23 2.90C22.04 2.90 22.04 2.95 22.01 3.11C21.99 3.25 22.06 3.25 21.15 3.25C20.54 3.25 18.40 3.29 17.63 3.29C17.14 3.29 16.20 3.25 16.10 3.25C15.97 3.25 15.92 3.30 15.92 3.49C15.92 3.72 15.99 3.74 16.16 3.74L16.81 3.74C16.87 3.74 16.94 4.79 16.94 5.71C16.94 5.80 17.00 8.27 17.00 9.83L17.00 11.17C17.00 11.84 16.97 12.18 16.94 12.18L16.09 12.18C15.86 12.18 15.81 12.21 15.81 12.39ZM31.01 5.01C31.01 5.17 31.19 5.17 31.32 5.17C31.47 5.17 31.51 5.15 31.53 4.97L31.64 3.89C31.65 3.81 32.20 3.75 32.96 3.75L34.94 3.75C35 3.75 35.03 4.35 35.03 4.97C35.03 6.43 34.97 12.18 34.85 12.18L33.98 12.18C33.75 12.18 33.71 12.19 33.71 12.39C33.71 12.63 33.73 12.68 33.92 12.68C34.24 12.68 35.22 12.64 35.64 12.64C36.06 12.64 37.00 12.68 37.32 12.68C37.49 12.68 37.52 12.61 37.52 12.40C37.52 12.24 37.49 12.18 37.32 12.18L36.33 12.18C36.30 12.18 36.30 11.76 36.30 11.31C36.30 9.56 36.39 5.96 36.39 5.92C36.40 5.18 36.40 3.75 36.50 3.75L38.11 3.75C38.82 3.75 39.65 3.78 39.65 3.85C39.65 3.99 39.61 4.90 39.61 4.97C39.61 5.12 39.68 5.17 39.86 5.17C40.05 5.17 40.12 5.17 40.12 5.03C40.12 3.93 40.18 3.40 40.18 3.14C40.18 2.94 40.10 2.94 39.90 2.94C39.75 2.94 39.69 2.98 39.68 3.16C39.68 3.23 39.03 3.28 38.19 3.28L33.19 3.28C32.54 3.28 31.72 3.28 31.72 3.21L31.72 3.07C31.72 2.94 31.60 2.94 31.50 2.94C31.28 2.94 31.25 3.00 31.23 3.19C31.18 3.89 31.01 4.97 31.01 5.01ZM47.80 5.45C47.80 5.56 47.82 5.68 48.01 5.68C48.23 5.68 48.22 5.60 48.29 5.39C48.36 5.15 48.73 3.98 48.85 3.53C48.86 3.46 48.87 3.37 48.87 3.32C48.87 3.09 48.72 2.93 48.43 2.93C48.06 2.93 47.96 3.14 47.94 3.37C47.89 3.68 47.80 5.43 47.80 5.45ZM56.98 5.77C56.98 9.07 61.96 8.20 61.96 10.65C61.96 11.59 61.12 12.31 60.14 12.31C59.32 12.31 57.72 11.83 57.69 11.47L57.61 10.15C57.60 9.97 57.53 9.91 57.34 9.91L57.27 9.91C57.06 9.91 57.06 10.00 57.06 10.12C57.06 10.32 57.18 11.66 57.20 12.17C57.22 12.38 58.48 12.85 60.02 12.85C61.59 12.85 63.20 11.87 63.20 10.11C63.20 6.79 58.23 7.87 58.23 5.32C58.23 4.31 59.01 3.56 60.05 3.56C61.07 3.56 62.16 4.58 62.16 4.89C62.16 5.01 62.12 5.73 62.12 5.78C62.12 5.92 62.16 5.99 62.43 5.99C62.66 5.99 62.68 5.94 62.68 5.75C62.68 5.04 62.76 3.68 62.76 3.53C62.76 3.30 62.72 3.29 62.45 3.29C62.23 3.29 62.22 3.32 62.20 3.53C62.20 3.61 62.19 3.78 62.15 3.78C62.09 3.78 62.01 3.74 61.94 3.68C61.14 3.14 60.52 3.08 60.02 3.08C58.49 3.08 56.98 4.17 56.98 5.77ZM80.96 3.51C80.96 3.75 81.05 3.79 81.21 3.79L82.07 3.77C82.12 3.77 82.18 5.52 82.18 7.11L82.18 11.63C82.18 11.93 82.17 12.18 82.14 12.18L81.41 12.18C81.19 12.18 81.12 12.19 81.12 12.39C81.12 12.63 81.14 12.68 81.34 12.68C81.47 12.68 82.42 12.64 82.84 12.64C83.02 12.64 83.54 12.67 84.18 12.67C85.74 12.67 88.14 12.43 88.14 10.23C88.14 8.27 86.32 7.94 85.64 7.84C85.55 7.83 85.54 7.83 85.54 7.81C85.54 7.80 85.58 7.78 85.65 7.76C86.30 7.52 87.74 6.90 87.74 5.54C87.74 3.81 86.27 3.25 84.59 3.25C84.01 3.25 83.41 3.29 82.87 3.29C82.45 3.29 81.44 3.26 81.21 3.26C81.03 3.26 80.96 3.28 80.96 3.51ZM83.41 8.19C83.41 8.12 83.41 8.08 83.52 8.08L84 8.08C84.62 8.08 85.26 8.09 85.64 8.22C86.51 8.51 86.83 9.16 86.83 10.14C86.83 11.17 86.37 12.18 84.35 12.18L83.51 12.18C83.43 12.18 83.41 9.02 83.41 8.19ZM83.41 7.59L83.41 6.92C83.41 5.87 83.43 3.71 83.47 3.68C83.52 3.65 83.83 3.63 84.04 3.63C85.46 3.63 86.48 4.41 86.48 5.77C86.48 6.92 85.75 7.46 85.12 7.66C85.04 7.69 84.94 7.70 84.85 7.70C84.77 7.70 84.63 7.69 84.39 7.69L83.59 7.69C83.41 7.69 83.41 7.67 83.41 7.59ZM96.25 3.51C96.25 3.75 96.33 3.77 96.50 3.77L97.03 3.77C97.09 3.77 97.09 4.12 97.09 4.55C97.09 5.66 97.08 8.96 97.08 9.42C97.08 11.13 97.33 12.80 100.18 12.80C101.26 12.80 102.42 12.38 103.08 12.00C103.33 11.86 103.63 11.72 103.71 11.72C103.98 11.72 104.24 12.74 104.58 12.74C104.90 12.74 104.92 12.35 104.92 12.25C104.92 11.96 104.97 10.08 105.01 8.16C105.07 6.12 105.06 3.77 105.17 3.77L105.49 3.77C105.71 3.77 105.78 3.75 105.78 3.56C105.78 3.32 105.74 3.26 105.55 3.26C105.41 3.26 104.87 3.30 104.45 3.30C104.03 3.30 103.24 3.26 103.01 3.26C102.83 3.26 102.73 3.28 102.73 3.51C102.73 3.75 102.84 3.77 103.01 3.77L103.71 3.77C103.78 3.77 103.80 4.30 103.80 4.87L103.80 9.14C103.80 11.19 103.80 11.12 103.46 11.34C103.07 11.61 102.26 12.08 101.08 12.08C99.11 12.08 98.31 11.17 98.31 9.41C98.31 8.82 98.38 3.77 98.49 3.77L99.40 3.77C99.62 3.77 99.67 3.75 99.67 3.56C99.67 3.32 99.65 3.26 99.46 3.26C99.13 3.26 98.25 3.30 97.83 3.30C97.41 3.30 96.73 3.26 96.50 3.26C96.32 3.26 96.25 3.28 96.25 3.51ZM113.68 12.39C113.68 12.63 113.72 12.68 113.92 12.68C114.24 12.68 115.00 12.64 115.71 12.64C116.37 12.64 117.17 12.68 117.39 12.68C117.56 12.68 117.59 12.61 117.59 12.40C117.59 12.24 117.56 12.18 117.39 12.18L116.42 12.18C116.33 12.18 116.30 9.55 116.30 7.76L116.30 5.87C116.30 5.14 116.33 3.70 116.42 3.70L117.33 3.70C117.56 3.70 117.59 3.68 117.59 3.49C117.59 3.25 117.56 3.19 117.39 3.19C117.07 3.19 116.40 3.23 115.74 3.23C114.93 3.23 114.21 3.19 113.99 3.19C113.81 3.19 113.74 3.21 113.74 3.44C113.74 3.68 113.82 3.70 113.99 3.70L114.91 3.70C114.95 3.70 115.02 4.79 115.02 5.71L115.02 7.08C115.02 8.92 115.01 12.18 114.90 12.18L113.97 12.18C113.75 12.18 113.68 12.19 113.68 12.39ZM125.48 12.39C125.48 12.63 125.51 12.68 125.71 12.68C126.03 12.68 126.99 12.64 127.41 12.64C127.83 12.64 132.19 12.68 132.51 12.68C132.78 12.68 132.85 12.66 132.86 12.49C132.92 12.08 133.15 10.72 133.15 10.60C133.15 10.47 133 10.44 132.83 10.43C132.73 10.42 132.65 10.46 132.64 10.56L132.47 11.76C132.43 12.05 132.41 12.03 132.19 12.04C132.03 12.05 129.53 12.12 128.10 12.12C128.06 12.12 128.02 11.38 128.02 10.54L128.02 6.66C128.02 5.40 128.03 3.70 128.13 3.70L129.11 3.70C129.35 3.70 129.37 3.63 129.37 3.44C129.37 3.23 129.36 3.19 129.12 3.19C128.80 3.19 127.86 3.23 127.44 3.23C127.02 3.23 126.08 3.19 125.86 3.19C125.64 3.19 125.58 3.22 125.58 3.44C125.58 3.65 125.62 3.70 125.82 3.70L126.64 3.70C126.69 3.70 126.71 4.23 126.71 4.90L126.71 8.13C126.71 10.07 126.69 12.18 126.60 12.18L125.76 12.18C125.54 12.18 125.48 12.21 125.48 12.39ZM140.70 12.46C140.70 12.63 140.71 12.70 140.90 12.70C141.05 12.70 142.28 12.64 142.67 12.64C143.53 12.64 144.41 12.70 145.26 12.70C147.88 12.70 150.28 11.07 150.28 7.91C150.28 4.89 147.94 3.07 144.90 3.07C144.34 3.07 143.08 3.23 142.04 3.23C141.57 3.23 141.11 3.22 141.05 3.22C140.87 3.22 140.85 3.32 140.85 3.49C140.85 3.68 140.92 3.70 141.05 3.70L142.02 3.67C142.04 3.67 142.04 4.20 142.04 4.72C142.04 5.91 141.96 12.21 141.88 12.21L140.98 12.21C140.80 12.21 140.70 12.22 140.70 12.46ZM143.28 11.40C143.28 9.46 143.28 7.52 143.29 5.60C143.29 5.03 143.33 3.61 143.37 3.60C143.67 3.53 144.26 3.51 144.61 3.51C147.17 3.51 148.78 5.75 148.78 7.73C148.78 8.95 148.74 12.25 144.06 12.25C143.79 12.25 143.39 12.25 143.29 12.21C143.28 12.19 143.28 11.79 143.28 11.40ZM168.18 3.49C168.18 3.72 168.29 3.74 168.46 3.74L169.08 3.74C169.13 3.74 169.20 4.79 169.20 5.71C169.20 5.80 169.26 8.27 169.26 9.83L169.26 11.17C169.26 11.84 169.25 12.18 169.19 12.18L168.60 12.18C168.38 12.18 168.31 12.19 168.31 12.39C168.31 12.63 168.32 12.68 168.52 12.68C168.73 12.68 169.57 12.64 169.99 12.64C170.41 12.64 171.35 12.68 171.67 12.68C171.84 12.68 171.86 12.61 171.86 12.40C171.86 12.24 171.84 12.18 171.67 12.18L170.53 12.18C170.48 12.18 170.49 10.16 170.45 8.33C170.45 8.08 170.44 8.09 170.63 8.09L173.05 8.09C173.75 8.09 173.78 8.19 173.78 8.30L173.78 9.16C173.78 9.28 173.96 9.28 174.08 9.28C174.17 9.28 174.30 9.28 174.30 9.17C174.30 8.99 174.27 8.33 174.27 7.83C174.27 7.32 174.30 6.82 174.30 6.69C174.30 6.58 174.19 6.58 174.06 6.58C173.89 6.58 173.78 6.58 173.78 6.71L173.78 7.45C173.78 7.62 173.33 7.63 173.05 7.63L170.63 7.63C170.42 7.63 170.45 7.66 170.45 7.45C170.44 7.13 170.42 6.15 170.42 5.26C170.42 4.52 170.44 3.71 170.51 3.71C171.91 3.71 174.09 3.75 174.38 3.79C174.38 3.96 174.34 4.82 174.34 4.89C174.34 5.04 174.41 5.10 174.59 5.10C174.79 5.10 174.86 5.08 174.86 4.94C174.86 3.85 174.92 3.36 174.92 3.09C174.92 2.93 174.83 2.90 174.64 2.90C174.51 2.90 174.44 2.90 174.41 3.11C174.40 3.25 174.47 3.25 173.52 3.25C172.91 3.25 170.63 3.29 169.89 3.29C169.40 3.29 168.46 3.25 168.36 3.25C168.24 3.25 168.18 3.30 168.18 3.49ZM182.95 8.15C182.95 11.17 185.29 12.80 187.54 12.80C190.33 12.80 192.30 10.89 192.30 8.06C192.30 5.33 190.55 3.11 187.75 3.11C185.15 3.11 182.95 5.10 182.95 8.15ZM184.35 7.77C184.35 5.64 185.64 3.58 187.61 3.58C189.85 3.58 190.93 5.81 190.93 7.94C190.93 10.08 189.83 12.32 187.56 12.32C185.57 12.32 184.35 10.28 184.35 7.77ZM200.41 3.51C200.41 3.72 200.48 3.79 200.68 3.79L201.49 3.77C201.59 3.77 201.63 6.61 201.63 8.55L201.63 10.42C201.63 11.30 201.61 12.18 201.57 12.18L200.97 12.18C200.75 12.18 200.68 12.19 200.68 12.39C200.68 12.63 200.72 12.68 200.91 12.68C201.04 12.68 201.87 12.64 202.29 12.64C202.71 12.64 203.48 12.68 203.80 12.68C203.97 12.68 203.99 12.61 203.99 12.40C203.99 12.24 203.97 12.18 203.80 12.18L202.99 12.18C202.92 12.18 202.83 9.18 202.83 8.37C202.83 8.30 202.83 8.26 202.94 8.26C203.34 8.26 203.94 8.27 204.23 8.27C206.47 8.32 206.61 10.00 206.61 11.68L206.61 12.49C206.61 12.61 206.67 12.64 206.77 12.64C206.77 12.64 208.21 12.68 208.68 12.68C208.85 12.68 208.91 12.64 208.91 12.53C208.91 12.24 208.85 12.18 208.70 12.18L208.05 12.18C207.96 12.18 207.93 12.14 207.90 11.31C207.82 8.99 206.44 8.34 205.53 8.05C205.39 8.01 205.42 8.01 205.53 7.95C206.12 7.69 207.44 6.94 207.44 5.63C207.44 3.63 205.74 3.21 204.34 3.21C204.02 3.21 202.73 3.29 202.31 3.29C201.89 3.29 200.91 3.26 200.69 3.26C200.51 3.26 200.41 3.28 200.41 3.51ZM202.83 7.80L202.83 4.40C202.83 4.05 202.86 3.68 202.90 3.68C203.11 3.65 203.39 3.65 203.62 3.65C204.92 3.65 206.16 4.47 206.16 5.82C206.16 6.99 205.62 7.57 204.96 7.88C204.92 7.90 204.88 7.90 204.81 7.90C204.33 7.88 203.62 7.88 203.01 7.87C202.85 7.87 202.83 7.85 202.83 7.80ZM225.76 3.44C225.76 3.68 225.85 3.70 226.02 3.70L226.42 3.70C226.55 3.70 228.80 7.74 229.21 8.50C229.26 8.60 229.31 8.65 229.31 8.81C229.31 10.50 229.29 12.18 229.17 12.18L228.45 12.18C228.23 12.18 228.19 12.19 228.19 12.39C228.19 12.63 228.20 12.68 228.40 12.68C228.59 12.68 229.40 12.64 229.99 12.64C230.82 12.64 231.35 12.68 231.67 12.68C231.84 12.68 231.87 12.61 231.87 12.40C231.87 12.24 231.84 12.18 231.67 12.18L230.71 12.18C230.61 12.18 230.58 9.72 230.58 8.22C230.58 8.18 230.58 8.15 230.62 8.09C231.17 7.22 233.11 3.70 233.18 3.70L233.66 3.70C233.83 3.70 233.93 3.68 233.93 3.44C233.93 3.22 233.84 3.19 233.66 3.19C233.44 3.19 233.20 3.23 232.60 3.23C232.01 3.23 231.67 3.19 231.50 3.19C231.31 3.19 231.27 3.25 231.27 3.49C231.27 3.68 231.34 3.70 231.56 3.70L232.29 3.70C232.30 3.70 232.32 3.71 232.32 3.74C232.32 4.05 230.75 6.99 230.37 7.71C230.26 7.92 230.26 7.88 230.15 7.67C229.74 6.89 228.45 4.56 228.16 3.85C228.10 3.71 228.09 3.70 228.27 3.70L229.10 3.70C229.32 3.70 229.35 3.68 229.35 3.49C229.35 3.25 229.31 3.19 229.15 3.19C228.91 3.19 228.30 3.23 227.50 3.23C226.69 3.23 226.20 3.19 226.02 3.19C225.83 3.19 225.76 3.21 225.76 3.44ZM241.05 8.15C241.05 11.17 243.39 12.80 245.64 12.80C248.43 12.80 250.40 10.89 250.40 8.06C250.40 5.33 248.65 3.11 245.85 3.11C243.25 3.11 241.05 5.10 241.05 8.15ZM242.45 7.77C242.45 5.64 243.74 3.58 245.71 3.58C247.95 3.58 249.03 5.81 249.03 7.94C249.03 10.08 247.93 12.32 245.66 12.32C243.67 12.32 242.45 10.28 242.45 7.77ZM258.51 3.51C258.51 3.75 258.59 3.77 258.76 3.77L259.29 3.77C259.35 3.77 259.35 4.12 259.35 4.55C259.35 5.66 259.34 8.96 259.34 9.42C259.34 11.13 259.59 12.80 262.44 12.80C263.52 12.80 264.68 12.38 265.34 12.00C265.59 11.86 265.89 11.72 265.97 11.72C266.24 11.72 266.50 12.74 266.84 12.74C267.16 12.74 267.18 12.35 267.18 12.25C267.18 11.96 267.23 10.08 267.27 8.16C267.33 6.12 267.32 3.77 267.43 3.77L267.75 3.77C267.97 3.77 268.04 3.75 268.04 3.56C268.04 3.32 268.00 3.26 267.81 3.26C267.67 3.26 267.13 3.30 266.71 3.30C266.29 3.30 265.50 3.26 265.27 3.26C265.09 3.26 264.99 3.28 264.99 3.51C264.99 3.75 265.10 3.77 265.27 3.77L265.97 3.77C266.04 3.77 266.06 4.30 266.06 4.87L266.06 9.14C266.06 11.19 266.06 11.12 265.72 11.34C265.33 11.61 264.52 12.08 263.34 12.08C261.37 12.08 260.57 11.17 260.57 9.41C260.57 8.82 260.64 3.77 260.75 3.77L261.66 3.77C261.88 3.77 261.93 3.75 261.93 3.56C261.93 3.32 261.91 3.26 261.72 3.26C261.39 3.26 260.51 3.30 260.09 3.30C259.67 3.30 258.99 3.26 258.76 3.26C258.58 3.26 258.51 3.28 258.51 3.51ZM276.64 12.07C276.64 12.31 277.10 12.75 277.51 12.75C277.69 12.75 278.14 12.35 278.14 11.90C278.14 11.51 277.56 11.20 277.30 11.20C277.03 11.20 276.64 11.76 276.64 12.07ZM276.88 3.53C276.88 4.28 277.06 6.93 277.14 10.05C277.14 10.19 277.27 10.23 277.37 10.23C277.47 10.23 277.61 10.19 277.61 10.05C277.77 6.36 277.97 3.64 277.97 3.47C277.97 3.19 277.82 3.14 277.49 3.14C277.13 3.14 276.88 3.21 276.88 3.53Z"></path></g></svg>